<svg xmlns="http://www.w3.org/2000/svg" xlink="http://www.w3.org/1999/xlink" viewBox="0 0 64 64" id="svg3984390231"><path d="M 48 6 L 16 6 C 10.486 6 6 10.486 6 16 L 6 48 C 6 53.514 10.486 58 16 58 L 48 58 C 53.514 58 58 53.514 58 48 L 58 16 C 58 10.486 53.514 6 48 6 Z M 32.006 15.652 C 36.418 15.652 40.006 19.24 40.006 23.652 C 40.006 28.064 36.418 31.652 32.006 31.652 C 27.594 31.652 24.006 28.064 24.006 23.652 C 24.006 19.24 27.594 15.652 32.006 15.652 Z M 44 49.044 L 20 49.044 C 18.895 49.044 18 48.149 18 47.044 C 18 39.324 24.282 33.044 32 33.044 C 39.718 33.044 46 39.324 46 47.044 C 46 48.149 45.105 49.044 44 49.044 Z" fill="var(--token-c09130f1-bbb6-43aa-bba4-f3e927747aaa, rgb(27, 155, 248)) /* {&quot;name&quot;:&quot;Blue&quot;} */"/></svg>