<svg xmlns="http://www.w3.org/2000/svg" xmlns:xlink="http://www.w3.org/1999/xlink" viewBox="0 0 32 32"><g transform="translate(0.884 1.161)" id="ss389480322_1"><path d="M -0 0 L 29.999 0 L 29.999 29.676 L -0 29.676 Z" fill="transparent"></path><path d="M 5.957 0.897 C 6.209 0.143 7.29 0.143 7.541 0.897 L 8.66 4.263 C 8.742 4.511 8.94 4.706 9.191 4.788 L 12.593 5.895 C 13.356 6.143 13.356 7.212 12.593 7.461 L 9.191 8.568 C 8.94 8.65 8.742 8.845 8.66 9.093 L 7.541 12.457 C 7.29 13.213 6.209 13.213 5.957 12.457 L 4.839 9.093 C 4.756 8.844 4.559 8.649 4.308 8.567 L 0.907 7.46 C 0.143 7.212 0.143 6.143 0.907 5.895 L 4.308 4.788 C 4.559 4.706 4.756 4.511 4.839 4.263 Z M 17.954 8.317 C 18.206 7.561 19.287 7.561 19.538 8.317 L 21.77 15.031 C 21.852 15.28 22.05 15.475 22.301 15.557 L 29.089 17.765 C 29.853 18.013 29.853 19.083 29.089 19.331 L 22.301 21.54 C 22.05 21.622 21.853 21.817 21.77 22.065 L 19.538 28.779 C 19.287 29.535 18.206 29.535 17.954 28.779 L 15.722 22.065 C 15.64 21.817 15.443 21.622 15.191 21.54 L 8.404 19.331 C 7.639 19.083 7.639 18.013 8.404 17.765 L 15.191 15.557 C 15.443 15.475 15.64 15.28 15.722 15.031 Z" fill="#1b9bf8"></path></g></svg>