<svg xmlns="http://www.w3.org/2000/svg" viewBox="0 0 110 72" width="110" height="72" preserveAspectRatio="xMidYMid slice" style="width: 100%; height: 100%; transform: translate3d(0px, 0px, 0px);"><defs><clipPath id="__lottie_element_2"><rect width="110" height="72" x="0" y="0"/></clipPath></defs><g clip-path="url(#__lottie_element_2)"><g transform="matrix(1.333299994468689,0,0,1.333299994468689,0,0)" opacity="1" style="display: block;"><g opacity="1" transform="matrix(1,0,0,1,0,0)"><g opacity="1" transform="matrix(1,0,0,1,0,0)"><g opacity="1" transform="matrix(0.75,0,0,0.75,0,0)"><path stroke-linecap="round" stroke-linejoin="miter" fill-opacity="0" stroke-miterlimit="4" stroke="rgb(28,155,247)" stroke-opacity="1" stroke-width="3" d=" M96,64 C98.18000030517578,63.36000061035156 100.37999725341797,62.7400016784668 102.55999755859375,62.09000015258789 C103.02999877929688,61.95000076293945 103.01000213623047,62.0099983215332 102.98999786376953,61.58000183105469 C102.91000366210938,59.279998779296875 101.95999908447266,57.15999984741211 101.19000244140625,55"/></g></g><g opacity="1" transform="matrix(1,0,0,1,0,0)"><g opacity="1" transform="matrix(0.75,0,0,0.75,0,0)"><path stroke-linecap="round" stroke-linejoin="miter" fill-opacity="0" stroke-miterlimit="4" stroke="rgb(28,155,247)" stroke-opacity="1" stroke-width="2" d=" M103,61 C100.91999816894531,60.0099983215332 98.88999938964844,58.900001525878906 96.7699966430664,58.029998779296875 C90.86000061035156,55.61000061035156 86.95999908447266,54.61000061035156 80.68000030517578,53.2400016784668 C75.75,52.16999816894531 70.94999694824219,51.65999984741211 66,51"/></g></g><g opacity="1" transform="matrix(0.75,0,0,0.75,0,0)"><path stroke-linecap="round" stroke-linejoin="miter" fill-opacity="0" stroke-miterlimit="4" stroke="rgb(28,155,247)" stroke-opacity="1" stroke-width="2" d=" M19.850000381469727,31.3799991607666 C17.81999969482422,31.700000762939453 8.59000015258789,35.09000015258789 11.760000228881836,38.06999969482422 C13.3100004196167,39.529998779296875 16.170000076293945,38.970001220703125 17.989999771118164,38.619998931884766 C20.309999465942383,38.16999816894531 23.139999389648438,37.43000030517578 23.280000686645508,34.619998931884766 C23.34000015258789,33.38999938964844 22.899999618530273,32.2400016784668 22.299999237060547,31.200000762939453 C22.18000030517578,30.989999771118164 21.81999969482422,30.3799991607666 21.860000610351562,30.6200008392334 C21.979999542236328,31.459999084472656 22.450000762939453,32.209999084472656 22.760000228881836,33 C25.290000915527344,39.380001068115234 27.899999618530273,45.72999954223633 30.329999923706055,52.150001525878906"/></g><g opacity="1" transform="matrix(0.75,0,0,0.75,0,0)"><path stroke-linecap="round" stroke-linejoin="miter" fill-opacity="0" stroke-miterlimit="4" stroke="rgb(28,155,247)" stroke-opacity="1" stroke-width="2" d=" M26.850000381469727,29.360000610351562 C28.440000534057617,31.559999465942383 29.850000381469727,34 32.13999938964844,34.66999816894531 C33.7599983215332,35.13999938964844 34.880001068115234,34.18000030517578 35.310001373291016,32.52000045776367 C35.90999984741211,30.209999084472656 35.220001220703125,27.549999237060547 34.38999938964844,24.989999771118164"/></g><g opacity="1" transform="matrix(0.75,0,0,0.75,0,0)"><path stroke-linecap="round" stroke-linejoin="miter" fill-opacity="0" stroke-miterlimit="4" stroke="rgb(28,155,247)" stroke-opacity="1" stroke-width="2" d=" M40.16999816894531,22.299999237060547 C40.31999969482422,23.190000534057617 41.040000915527344,30.809999465942383 41.849998474121094,31.030000686645508"/></g><g opacity="1" transform="matrix(0.75,0,0,0.75,0,0)"><path stroke-linecap="round" stroke-linejoin="miter" fill-opacity="0" stroke-miterlimit="4" stroke="rgb(28,155,247)" stroke-opacity="1" stroke-width="2" d=" M39.959999084472656,16.81999969482422 C39.959999084472656,16.81999969482422 40.34000015258789,17.790000915527344 40.34000015258789,17.790000915527344"/></g><g opacity="1" transform="matrix(0.75,0,0,0.75,0,0)"><path stroke-linecap="round" stroke-linejoin="miter" fill-opacity="0" stroke-miterlimit="4" stroke="rgb(28,155,247)" stroke-opacity="1" stroke-width="2" d=" M50.22999954223633,19.06999969482422 C48.77000045776367,19.469999313354492 47.560001373291016,19.68000030517578 47.15999984741211,21.299999237060547 C46.650001525878906,23.350000381469727 48.20000076293945,25.18000030517578 50.02000045776367,25.8799991607666 C52.63999938964844,26.889999389648438 56.22999954223633,25.579999923706055 58.56999969482422,24.200000762939453"/></g><g opacity="1" transform="matrix(0.75,0,0,0.75,0,0)"><path stroke-linecap="round" stroke-linejoin="miter" fill-opacity="0" stroke-miterlimit="4" stroke="rgb(28,155,247)" stroke-opacity="1" stroke-width="2" d=" M60.5099983215332,12.789999961853027 C62.029998779296875,15.289999961853027 63.439998626708984,17.940000534057617 65.12999725341797,20.299999237060547 C65.26000213623047,20.479999542236328 65.01000213623047,20.049999237060547 65.08999633789062,20.260000228881836"/></g><g opacity="1" transform="matrix(0.75,0,0,0.75,0,0)"><path stroke-linecap="round" stroke-linejoin="miter" fill-opacity="0" stroke-miterlimit="4" stroke="rgb(28,155,247)" stroke-opacity="1" stroke-width="2" d=" M66.87999725341797,10.739999771118164 C65.80999755859375,12.069999694824219 63.18000030517578,14.239999771118164 63.400001525878906,16.420000076293945 C63.40999984741211,16.540000915527344 63.59000015258789,16.260000228881836 63.689998626708984,16.190000534057617 C64,15.979999542236328 64.3499984741211,15.829999923706055 64.7300033569336,15.8100004196167 C65.18000030517578,15.779999732971191 65.5999984741211,15.930000305175781 66.01000213623047,16.100000381469727 C68.23999786376953,17.010000228881836 70.44000244140625,18.059999465942383 72.63999938964844,19.030000686645508"/></g><g opacity="1" transform="matrix(0.75,0,0,0.75,0,0)"><path stroke-linecap="round" stroke-linejoin="miter" fill-opacity="0" stroke-miterlimit="4" stroke="rgb(28,155,247)" stroke-opacity="1" stroke-width="2" d=" M47.599998474121094,41.290000915527344 C47.90999984741211,42.439998626708984 48.220001220703125,43.56999969482422 48.52000045776367,44.720001220703125 C48.7400016784668,45.52000045776367 49.7400016784668,47.619998931884766 49.470001220703125,48.470001220703125 C49.31999969482422,48.91999816894531 44.93000030517578,46.189998626708984 42.689998626708984,45.130001068115234 C42.11000061035156,44.849998474121094 41.720001220703125,45.310001373291016 41.959999084472656,45.90999984741211 C41.959999084472656,45.90999984741211 44.81999969482422,53.22999954223633 44.81999969482422,53.22999954223633"/></g><g opacity="1" transform="matrix(0.75,0,0,0.75,0,0)"><path stroke-linecap="round" stroke-linejoin="miter" fill-opacity="0" stroke-miterlimit="4" stroke="rgb(28,155,247)" stroke-opacity="1" stroke-width="2" d=" M55.52000045776367,40.880001068115234 C55.58000183105469,43.15999984741211 55.63999938964844,45.43000030517578 55.7400016784668,47.70000076293945 C55.75,47.849998474121094 55.779998779296875,47.9900016784668 55.77000045776367,48.13999938964844 C55.7400016784668,48.65999984741211 55.70000076293945,47.11000061035156 55.68000030517578,46.59000015258789 C55.59000015258789,44.630001068115234 55.54999923706055,42.65999984741211 55.52000045776367,40.70000076293945 C55.5099983215332,40.459999084472656 55.27000045776367,38.83000183105469 55.5099983215332,38.47999954223633 C56.11000061035156,37.599998474121094 64.01000213623047,42.61000061035156 64.6500015258789,43.31999969482422"/></g><g opacity="1" transform="matrix(0.75,0,0,0.75,0,0)"><path stroke-linecap="round" stroke-linejoin="miter" fill-opacity="0" stroke-miterlimit="4" stroke="rgb(28,155,247)" stroke-opacity="1" stroke-width="2" d=" M56.95000076293945,44.38999938964844 C56.95000076293945,44.38999938964844 61.11000061035156,41.900001525878906 61.11000061035156,41.900001525878906"/></g><g opacity="1" transform="matrix(0.75,0,0,0.75,0,0)"><path stroke-linecap="round" stroke-linejoin="miter" fill-opacity="0" stroke-miterlimit="4" stroke="rgb(28,155,247)" stroke-opacity="1" stroke-width="2" d=" M65.26000213623047,33.63999938964844 C66.9800033569336,35.060001373291016 68.66999816894531,36.540000915527344 70.47000122070312,37.86000061035156 C70.83999633789062,38.130001068115234 70.86000061035156,35.79999923706055 70.86000061035156,35.68000030517578 C70.9000015258789,33.099998474121094 70.56999969482422,30.739999771118164 69.9000015258789,28.260000228881836"/></g></g></g></g></svg>