<svg xmlns="http://www.w3.org/2000/svg" xlink="http://www.w3.org/1999/xlink" viewBox="0 0 32 32" id="svg572134325"><path d="M 15.537 16.347 C 15.941 15.639 16.718 15.197 17.565 15.197 C 17.838 15.197 18.096 15.257 18.344 15.343 L 18.344 9.72 C 18.344 9.513 18.262 9.315 18.116 9.169 C 17.97 9.023 17.772 8.941 17.565 8.941 L 5.107 8.941 C 4.9 8.941 4.702 9.023 4.556 9.169 C 4.409 9.316 4.327 9.514 4.328 9.721 L 4.328 22.179 C 4.328 22.609 4.676 22.957 5.107 22.957 L 11.76 22.957 Z" fill="var(--token-c09130f1-bbb6-43aa-bba4-f3e927747aaa, rgb(27, 155, 248))"/><path d="M 20.683 2.711 C 17.642 2.711 15.073 4.67 14.105 7.383 L 17.568 7.383 C 18.858 7.384 19.903 8.429 19.904 9.719 L 19.904 16.675 C 20.163 16.705 20.422 16.727 20.683 16.727 C 24.552 16.723 27.687 13.588 27.691 9.719 C 27.687 5.85 24.552 2.715 20.683 2.711 Z M 23.796 29.29 L 11.337 29.29 C 11.06 29.289 10.804 29.141 10.665 28.901 C 10.526 28.662 10.524 28.366 10.661 28.125 L 16.891 17.119 C 17.167 16.634 17.966 16.634 18.243 17.119 L 24.472 28.125 C 24.609 28.366 24.607 28.662 24.468 28.901 C 24.329 29.141 24.073 29.289 23.796 29.29 Z" fill="var(--token-c09130f1-bbb6-43aa-bba4-f3e927747aaa, rgb(27, 155, 248))"/></svg>